<svg width="62" height="72" viewBox="0 0 62 72" fill="none" xmlns="http://www.w3.org/2000/svg">
<path d="M5.77558 30.8779H55.83M4.26191 32.3471L29.2591 64.7694C29.4407 65.0062 29.6744 65.198 29.9421 65.3301C30.2098 65.4621 30.5043 65.5308 30.8028 65.5308C31.1013 65.5308 31.3958 65.4621 31.6635 65.3301C31.9312 65.198 32.1649 65.0062 32.3465 64.7694L57.3437 32.3471C57.5895 32.0271 57.732 31.6398 57.7525 31.2369C57.7729 30.8339 57.6702 30.4342 57.458 30.091L48.9788 16.4043C48.8043 16.121 48.5602 15.8871 48.2698 15.7247C47.9794 15.5624 47.6523 15.4769 47.3196 15.4766H14.286C13.9533 15.4769 13.6262 15.5624 13.3358 15.7247C13.0454 15.8871 12.8013 16.121 12.6268 16.4043L4.14761 30.091C3.93542 30.4342 3.83272 30.8339 3.85313 31.2369C3.87355 31.6398 4.01613 32.0271 4.26191 32.3471Z" stroke="#DDDDC5" stroke-width="3.85034" stroke-linecap="round" stroke-linejoin="round"/>
<path d="M48.1296 17.4017L42.3541 30.8779M42.3541 30.8779L30.8031 15.4766L19.2521 30.8779M42.3541 30.8779L30.8031 63.6058L19.2521 30.8779M13.4766 17.4017L19.2521 30.8779" stroke="#DDDDC5" stroke-width="3.85034" stroke-linecap="round" stroke-linejoin="round"/>
<path d="M30.8027 3.5V2M42.8027 6.5L41.3027 8M18.8027 6.5L20.3027 8" stroke="#1B1265" stroke-width="2.25" stroke-linecap="round" stroke-linejoin="round"/>
</svg>
