<svg width="62" height="63" viewBox="0 0 62 63" fill="none" xmlns="http://www.w3.org/2000/svg">
<g clip-path="url(#clip0_2047_2780)">
<path d="M61.4101 14.6106C61.279 13.7778 60.8978 13.0045 60.3171 12.3933C59.7364 11.782 58.9837 11.3617 58.1587 11.1881L48.1136 8.98057C47.0363 8.74563 45.9212 8.74475 44.8436 8.97798C43.766 9.21121 42.7511 9.67312 41.8674 10.3325L12.177 31.9628L3.86029 31.6206C3.19172 31.5966 2.53261 31.784 1.97658 32.156C1.42054 32.528 0.995847 33.0657 0.762817 33.6928C0.529788 34.3199 0.500271 35.0045 0.678459 35.6493C0.856647 36.2941 1.23348 36.8664 1.75544 37.2849L10.3118 44.0101C11.3385 45.2593 12.023 45.0198 29.0159 35.7618L30.6073 51.8819C30.6338 52.3217 30.7846 52.7449 31.042 53.1023C31.2995 53.4598 31.6532 53.7368 32.0619 53.9012C32.3556 54.0187 32.6697 54.0769 32.986 54.0724C33.6224 54.0529 34.2303 53.8037 34.6973 53.3707L38.7872 49.6402C39.1944 49.2629 39.4703 48.7652 39.5744 48.2198L43.322 27.8558C49.4312 24.4333 55.2153 21.2161 59.3394 18.8717C60.0773 18.4566 60.6709 17.8263 61.0409 17.0648C61.4109 16.3034 61.5397 15.4472 61.4101 14.6106ZM57.6453 15.8941C53.3671 18.3241 47.3777 21.7295 40.9434 25.2547L40.2417 25.6483L36.2545 47.33L33.7389 49.6231L31.8566 30.2858L29.5806 31.4495C17.3108 38.2945 13.2209 40.2796 11.8177 40.8956L4.45923 35.0602L13.1524 35.4367L43.9552 13.0876C44.4388 12.7247 44.9939 12.4684 45.5839 12.3356C46.1738 12.2029 46.7852 12.1967 47.3777 12.3175L57.3886 14.4737C57.5429 14.5017 57.6842 14.5782 57.7919 14.6921C57.8996 14.806 57.9682 14.9513 57.9875 15.1069C58.0228 15.2575 58.0085 15.4154 57.9468 15.5572C57.8852 15.699 57.7794 15.8171 57.6453 15.8941Z" fill="#DDDDC5"/>
<path d="M12.1758 22.1064L18.2679 23.8177L21.0744 21.7813L14.2293 19.7962L17.3096 17.9138L26.6702 17.64L30.6061 14.7822L17.3096 15.1929C16.8904 15.1703 16.4738 15.2714 16.1117 15.4838L11.6111 18.1021C11.239 18.3225 10.9405 18.6481 10.7532 19.0379C10.5659 19.4277 10.4982 19.8643 10.5586 20.2925C10.619 20.7207 10.8048 21.1215 11.0926 21.4443C11.3804 21.7671 11.7573 21.9975 12.1758 22.1064Z" fill="#1B1265"/>
</g>
<defs>
<clipPath id="clip0_2047_2780">
<rect width="61.6055" height="61.6055" fill="white" transform="translate(0.197266 0.646973)"/>
</clipPath>
</defs>
</svg>
