<svg width="28" height="28" viewBox="0 0 28 28" fill="none" xmlns="http://www.w3.org/2000/svg">
<path d="M2.97461 13.8462C2.97461 8.80844 2.97461 6.28844 4.53948 4.72357C6.10436 3.15869 8.62323 3.15869 13.6621 3.15869C18.6999 3.15869 21.2199 3.15869 22.7847 4.72357C24.3496 6.28844 24.3496 8.80732 24.3496 13.8462C24.3496 18.8839 24.3496 21.4039 22.7847 22.9688C21.2199 24.5337 18.701 24.5337 13.6621 24.5337C8.62436 24.5337 6.10436 24.5337 4.53948 22.9688C2.97461 21.4039 2.97461 18.8851 2.97461 13.8462Z" stroke="currentColor" stroke-width="2" stroke-linecap="round" stroke-linejoin="round"/>
<path d="M19.8586 7.65869H19.8474M18.7246 13.8462C18.7246 15.1888 18.1912 16.4765 17.2418 17.4259C16.2924 18.3753 15.0048 18.9087 13.6621 18.9087C12.3195 18.9087 11.0318 18.3753 10.0824 17.4259C9.13298 16.4765 8.59961 15.1888 8.59961 13.8462C8.59961 12.5035 9.13298 11.2159 10.0824 10.2665C11.0318 9.31706 12.3195 8.78369 13.6621 8.78369C15.0048 8.78369 16.2924 9.31706 17.2418 10.2665C18.1912 11.2159 18.7246 12.5035 18.7246 13.8462Z" stroke="currentColor" stroke-width="2" stroke-linecap="round" stroke-linejoin="round"/>
</svg>
