<svg width="27" height="27" viewBox="0 0 27 27" fill="none" xmlns="http://www.w3.org/2000/svg">
<path d="M18.4603 9.46191V7.28939C18.4603 5.2407 18.4603 4.21744 17.8237 3.58089C17.1872 2.94434 16.1639 2.94434 14.1152 2.94434H11.9427C9.89402 2.94434 8.87076 2.94434 8.23421 3.58089C7.59766 4.21744 7.59766 5.2407 7.59766 7.28939V9.46191M12.1013 13.832C12.5141 13.0911 12.7205 12.7207 13.029 12.7207C13.3375 12.7207 13.5439 13.09 13.9566 13.832L14.0631 14.0231C14.1804 14.2339 14.2391 14.3381 14.3303 14.4077C14.4226 14.4772 14.5367 14.5033 14.7648 14.5543L14.9712 14.6021C15.7729 14.7835 16.1737 14.8737 16.2693 15.18C16.3649 15.4863 16.0911 15.8068 15.5448 16.4455L15.4035 16.6106C15.2482 16.792 15.17 16.8822 15.1352 16.9951C15.1005 17.1081 15.1124 17.2287 15.1352 17.4709L15.157 17.6914C15.2395 18.5442 15.2808 18.9711 15.032 19.1601C14.7822 19.3491 14.4064 19.1764 13.6557 18.8309L13.4624 18.7419C13.2484 18.6441 13.1419 18.5941 13.029 18.5941C12.916 18.5941 12.8095 18.6441 12.5956 18.7419L12.4022 18.8309C11.6516 19.1775 11.2757 19.3491 11.0259 19.1601C10.7761 18.9711 10.8184 18.5442 10.901 17.6914L10.9227 17.4709C10.9455 17.2287 10.9575 17.1081 10.9227 16.9951C10.8879 16.8822 10.8097 16.792 10.6544 16.6106L10.5132 16.4455C9.9668 15.8068 9.69306 15.4874 9.78865 15.18C9.88424 14.8737 10.2851 14.7835 11.0867 14.6021L11.2931 14.5543C11.5212 14.5033 11.6353 14.4783 11.7276 14.4077C11.8189 14.3381 11.8775 14.2339 11.9948 14.0231L12.1013 13.832Z" stroke="currentColor" stroke-width="1.62939"/>
<path d="M13.029 24.6693C17.8284 24.6693 21.7191 20.7786 21.7191 15.9792C21.7191 11.1798 17.8284 7.28906 13.029 7.28906C8.22956 7.28906 4.33887 11.1798 4.33887 15.9792C4.33887 20.7786 8.22956 24.6693 13.029 24.6693Z" stroke="currentColor" stroke-width="1.62939"/>
</svg>
