<svg width="63" height="63" viewBox="0 0 63 63" fill="none" xmlns="http://www.w3.org/2000/svg">
<path d="M44.364 9.23327C40.4568 6.96494 36.0179 5.77361 31.5 5.78079C17.323 5.78079 5.83105 17.2728 5.83105 31.4497C5.83105 45.6267 17.323 57.1187 31.5 57.1187C45.677 57.1187 57.1689 45.6267 57.1689 31.4497C57.1689 26.7947 55.9291 22.4271 53.7627 18.664" stroke="#DDDDC5" stroke-width="4" stroke-linecap="round" stroke-linejoin="round"/>
<path d="M41.7032 21.2461C41.7032 21.2461 37.3548 32.8549 35.3501 34.8596C34.3873 35.8224 33.0815 36.3633 31.7199 36.3633C30.3583 36.3633 29.0524 35.8224 28.0896 34.8596C27.1268 33.8968 26.5859 32.591 26.5859 31.2294C26.5859 29.8678 27.1268 28.562 28.0896 27.5992C30.0944 25.5944 41.7032 21.2461 41.7032 21.2461Z" stroke="#1B1265" stroke-width="4" stroke-linejoin="round"/>
</svg>
