<svg width="63" height="63" viewBox="0 0 63 63" fill="none" xmlns="http://www.w3.org/2000/svg">
<path d="M54.8525 44.2842V31.4497C54.8525 28.4159 54.255 25.4118 53.094 22.6089C51.933 19.8061 50.2313 17.2593 48.0861 15.1141C45.9409 12.9689 43.3941 11.2672 40.5913 10.1062C37.7884 8.94521 34.7843 8.34766 31.7505 8.34766C28.7167 8.34766 25.7126 8.94521 22.9097 10.1062C20.1068 11.2672 17.5601 12.9689 15.4149 15.1141C13.2696 17.2593 11.568 19.8061 10.407 22.6089C9.24599 25.4118 8.64844 28.4159 8.64844 31.4497V44.2842" stroke="#DDDDC5" stroke-width="3.85034"/>
<path d="M57.4189 40.4336V45.5674M6.08105 40.4336V45.5674" stroke="#DDDDC5" stroke-width="3.85034" stroke-linecap="round"/>
<path d="M21.4829 36.1855C21.4829 34.2218 21.4829 33.2412 21.0337 32.5585C20.8123 32.2177 20.5132 31.9345 20.161 31.7319C19.4653 31.3315 18.5258 31.4239 16.6494 31.6087C13.487 31.9193 11.9058 32.0759 10.7713 32.9281C10.197 33.367 9.71688 33.917 9.35947 34.5452C8.64844 35.8056 8.64844 37.4561 8.64844 40.7648V44.782C8.64844 48.0548 8.64844 49.6925 9.3723 50.958C9.6461 51.432 9.98151 51.8529 10.3785 52.2209C11.4387 53.1963 12.9814 53.5043 16.0719 54.1101C18.2461 54.5388 19.3344 54.7544 20.1379 54.3026C20.4363 54.1346 20.6982 53.9086 20.9079 53.6378C21.4829 52.8985 21.4829 51.7486 21.4829 49.4435V36.1855ZM42.0181 36.1855C42.0181 34.2218 42.0181 33.2412 42.4673 32.5585C42.6932 32.2171 42.9909 31.9321 43.34 31.7319C44.0356 31.3315 44.9751 31.4239 46.8515 31.6087C50.0139 31.9193 51.5952 32.0759 52.7297 32.9281C53.3021 33.3619 53.7821 33.9112 54.1415 34.5452C54.8525 35.803 54.8525 37.4535 54.8525 40.7622V44.7794C54.8525 48.0522 54.8525 49.6899 54.1287 50.9554C53.8549 51.4294 53.5195 51.8504 53.1225 52.2183C52.0623 53.1937 50.5196 53.5017 47.4291 54.1075C45.2549 54.5362 44.1666 54.7518 43.3631 54.3C43.0646 54.132 42.8028 53.906 42.5931 53.6352C42.0181 52.8985 42.0181 51.7486 42.0181 49.4435V36.1855Z" stroke="#1B1265" stroke-width="3.85034"/>
</svg>
