<svg width="28" height="28" viewBox="0 0 28 28" fill="none" xmlns="http://www.w3.org/2000/svg">
<path d="M22.2311 3.71786C21.9603 3.73795 21.6945 3.80148 21.4439 3.90602H21.4405C21.2001 4.00136 20.0568 4.4823 18.3186 5.2113L12.0901 7.83452C7.62074 9.71608 3.22733 11.569 3.22733 11.569L3.27965 11.5487C3.27965 11.5487 2.97674 11.6483 2.66033 11.8651C2.46442 11.9889 2.29611 12.1518 2.1659 12.3435C2.01065 12.5713 1.88577 12.9198 1.93218 13.2801C2.00811 13.8893 2.40299 14.2546 2.68649 14.4563C2.97336 14.6605 3.24674 14.7558 3.24674 14.7558H3.25349L7.37352 16.1438C7.5583 16.7369 8.62902 20.257 8.88636 21.0679C9.03824 21.5522 9.18589 21.8551 9.37068 22.0863C9.45899 22.2044 9.56558 22.3031 9.69046 22.3825C9.75532 22.4214 9.82513 22.4515 9.89802 22.4719L9.85583 22.4618C9.86849 22.4651 9.87861 22.4753 9.88789 22.4786C9.92164 22.4879 9.94443 22.4913 9.98746 22.498C10.6397 22.6955 11.1636 22.2905 11.1636 22.2905L11.1932 22.2669L13.6257 20.052L17.7027 23.1798L17.7955 23.2195C18.6452 23.5924 19.5058 23.3848 19.9606 23.0186C20.4187 22.6499 20.5968 22.1783 20.5968 22.1783L20.6263 22.1023L23.7769 5.96224C23.8663 5.56399 23.8891 5.19105 23.7904 4.82908C23.6891 4.46249 23.4539 4.14724 23.1314 3.94567C22.8609 3.78114 22.5473 3.70177 22.2311 3.71786ZM22.1459 5.44755C22.1425 5.50071 22.1526 5.4948 22.129 5.59689V5.60617L19.008 21.5784C18.9945 21.6011 18.9717 21.6509 18.9093 21.7007C18.8435 21.753 18.7911 21.7859 18.5169 21.6771L13.5304 17.854L10.5182 20.5996L11.151 16.558L19.2982 8.9643C19.6341 8.65211 19.5218 8.5863 19.5218 8.5863C19.5455 8.20324 19.0147 8.47408 19.0147 8.47408L8.74124 14.8385L8.73786 14.8216L3.81374 13.1636V13.1603L3.80108 13.1577L3.8264 13.1476L3.8534 13.1341L3.87955 13.1248C3.87955 13.1248 8.27633 11.272 12.7457 9.39039C14.9833 8.44792 17.2378 7.49871 18.9717 6.76633C20 6.33349 21.0294 5.90317 22.0598 5.47539C22.129 5.44839 22.0961 5.44755 22.1459 5.44755Z" fill="currentColor"/>
</svg>
