<svg width="28" height="28" viewBox="0 0 28 28" fill="none" xmlns="http://www.w3.org/2000/svg">
<path d="M14.9026 12.2818L9.08953 4.13188C9.02211 4.0372 8.93303 3.96001 8.8297 3.90677C8.72638 3.85352 8.61183 3.82576 8.49559 3.82581H5.42753C5.2938 3.82598 5.1627 3.86294 5.04858 3.93265C4.93446 4.00236 4.84172 4.10212 4.78052 4.22102C4.71931 4.33992 4.692 4.47336 4.70158 4.60675C4.71115 4.74013 4.75725 4.8683 4.83481 4.97724L12.2766 15.4106M14.9026 12.2818L22.3444 22.7152C22.4219 22.8241 22.468 22.9523 22.4776 23.0857C22.4872 23.219 22.4599 23.3525 22.3987 23.4714C22.3375 23.5903 22.2447 23.69 22.1306 23.7598C22.0165 23.8295 21.8854 23.8664 21.7517 23.8666H18.6836C18.5674 23.8666 18.4528 23.8389 18.3495 23.7856C18.2462 23.7324 18.1571 23.6552 18.0897 23.5605L12.2766 15.4106M14.9026 12.2818L21.9982 3.82581M12.2766 15.4106L5.18097 23.8666" stroke="white" stroke-width="1.6875" stroke-linecap="round" stroke-linejoin="round"/>
</svg>
